<svg width="1806" height="1530" viewBox="0 0 1806 1530" fill="none" xmlns="http://www.w3.org/2000/svg">
<path d="M1721.82 553.21C1721.82 769.738 1546.3 945.262 1329.77 945.262C1113.24 945.262 937.716 769.738 937.716 553.21C937.716 336.682 1113.24 161.158 1329.77 161.158C1546.3 161.158 1721.82 336.682 1721.82 553.21Z" fill="#FA7598"/>
<path d="M42.1058 1529.15H1091.68L527.819 588.024L5.98137 1465.64C-10.6971 1493.68 9.47728 1529.15 42.1058 1529.15Z" fill="#FA7598"/>
<path d="M1072.89 1529.15L1762.39 1529.3C1795.53 1529.3 1815.99 1493.25 1799.02 1464.77L938.517 20.8116C921.984 -6.9372 881.708 -6.9372 865.175 20.8116L519.881 601.425L1072.89 1529.15Z" fill="#035C67"/>
</svg>