<svg width="1612" height="257" viewBox="0 0 1612 257" fill="none" xmlns="http://www.w3.org/2000/svg">
<path d="M432.653 252.616H524.23L475.003 170.489L429.437 247.075C428.002 249.499 429.784 252.616 432.653 252.616Z" fill="white"/>
<path d="M522.597 252.616H582.758C585.628 252.616 587.458 249.45 585.974 246.976L510.872 120.965C509.437 118.54 505.924 118.54 504.49 120.965L474.36 171.626L522.597 252.616Z" fill="white"/>
<path d="M1487.69 3.31494C1419.12 3.31494 1363.51 58.924 1363.51 127.495C1363.51 196.067 1419.12 251.676 1487.69 251.676C1556.26 251.676 1611.87 196.067 1611.87 127.495C1611.82 58.8746 1556.26 3.31494 1487.69 3.31494Z" fill="white"/>
<path d="M95.5844 61.8924C106.469 56.0049 119.035 52.8385 132.938 52.3438C157.526 51.5522 181.175 61.9418 198.54 79.3568L198.689 79.5052C200.074 80.8905 202.35 80.9399 203.785 79.5547L235.646 48.4848C237.18 46.9511 237.18 44.4774 235.547 43.0427C227.483 35.7699 204.675 15.8317 190.773 10.2411C173.853 3.46316 154.904 0 134.372 0C109.091 0 85.9864 5.54106 65.7019 16.4749C45.269 27.4582 29.0414 42.8447 17.4644 62.2386C5.88744 81.6326 0 103.748 0 128.04C0 152.282 5.88744 174.446 17.4644 193.84C29.0414 213.234 45.2195 228.621 65.5535 239.604C85.739 250.538 108.695 256.079 133.779 256.079C151.441 256.079 168.905 253.358 185.677 248.015C198.887 243.809 220.408 230.55 229.066 225.009C231.441 223.476 232.876 220.853 232.876 218.033V122.004C232.876 119.975 231.243 118.392 229.264 118.392H181.126C179.097 118.392 177.514 120.025 177.514 122.004V192.208C177.514 193.642 176.722 194.929 175.436 195.522C163.958 200.965 150.748 203.735 136.153 203.735C121.064 203.735 107.458 200.42 95.6833 193.84C83.9579 187.359 74.7063 178.256 68.0767 166.877C61.4471 155.498 58.0829 142.437 58.0829 128.04C58.0829 113.247 61.4471 99.9381 68.0767 88.559C74.6568 77.1305 83.9085 68.1756 95.5844 61.8924Z" fill="white"/>
<path d="M280.025 252.616H330.241C332.319 252.616 334.001 250.934 334.001 248.856V7.02523C334.001 4.94731 332.319 3.26514 330.241 3.26514H280.025C277.947 3.26514 276.265 4.94731 276.265 7.02523V248.856C276.265 250.934 277.947 252.616 280.025 252.616Z" fill="white"/>
<path d="M717.18 149.363H823.5C825.529 149.363 827.161 147.73 827.161 145.702V103.005C827.161 100.977 825.529 99.3443 823.5 99.3443H717.18C715.151 99.3443 713.519 97.7117 713.519 95.6833V55.8564C713.519 53.828 715.151 52.1953 717.18 52.1953H837.947C839.975 52.1953 841.608 50.5627 841.608 48.5343V5.14526C841.608 3.11681 839.975 1.48413 837.947 1.48413H659.443C657.415 1.48413 655.782 3.11681 655.782 5.14526V247.174C655.782 249.202 657.415 250.835 659.443 250.835H842.647C844.675 250.835 846.308 249.202 846.308 247.174V203.785C846.308 201.756 844.675 200.124 842.647 200.124H717.18C715.151 200.124 713.519 198.491 713.519 196.462V152.925C713.519 150.996 715.151 149.363 717.18 149.363Z" fill="white"/>
<path d="M1040.89 14.0013C1024.91 6.92651 1006.06 3.31494 984.787 3.31494H884.601C882.573 3.31494 880.94 4.94755 880.94 6.97599V249.004C880.94 251.033 882.573 252.666 884.601 252.666H935.015C937.044 252.666 938.676 251.033 938.676 249.004V188.448C938.676 186.419 940.309 184.787 942.338 184.787H984.737C1006.01 184.787 1024.91 181.175 1040.84 174.1C1057.17 166.828 1069.93 156.141 1078.69 142.387C1087.45 128.633 1091.9 112.406 1091.9 94.1003C1091.9 75.5474 1087.45 59.2209 1078.69 45.6154C1069.98 31.8616 1057.22 21.2741 1040.89 14.0013ZM1021.69 123.191C1013.18 130.167 1000.07 133.68 982.808 133.68H942.387C940.359 133.68 938.726 132.047 938.726 130.019V57.9346C938.726 55.9061 940.359 54.2734 942.387 54.2734H982.808C1000.12 54.2734 1013.18 57.7861 1021.69 64.8115C1029.91 71.54 1033.91 81.0886 1033.91 94.0014C1033.87 106.964 1029.86 116.463 1021.69 123.191Z" fill="white"/>
<path d="M1318.49 143.673C1327.89 129.771 1332.64 113.049 1332.64 94.0507C1332.64 75.4978 1328.19 59.2208 1319.43 45.5659C1310.67 31.9109 1297.91 21.3235 1281.58 14.0507C1265.6 6.9759 1246.7 3.36426 1225.48 3.36426H1125.29C1123.27 3.36426 1121.63 4.99694 1121.63 7.02539V249.054C1121.63 251.082 1123.27 252.715 1125.29 252.715H1175.76C1177.79 252.715 1179.42 251.082 1179.42 249.054V187.755C1179.42 185.727 1181.05 184.094 1183.08 184.094H1225.53C1227.66 184.094 1229.49 184.044 1231.12 183.995L1277.92 251.082C1278.61 252.072 1279.7 252.616 1280.89 252.616H1336.2C1339.17 252.616 1340.85 249.301 1339.17 246.877L1288.61 174.644C1287.37 172.863 1288.01 170.39 1289.89 169.351C1301.72 162.87 1311.32 154.261 1318.49 143.673ZM1262.29 123.389C1253.78 130.464 1240.72 134.026 1223.4 134.026H1182.98C1180.95 134.026 1179.32 132.393 1179.32 130.365V57.9344C1179.32 55.906 1180.95 54.2733 1182.98 54.2733H1223.4C1240.72 54.2733 1253.78 57.786 1262.29 64.8114C1270.5 71.5399 1274.51 81.0885 1274.51 94.0013C1274.56 106.964 1270.55 116.561 1262.29 123.389Z" fill="white"/>
<path d="M602.845 3.5127H553.073C550.996 3.5127 549.313 5.1948 549.313 7.27272V97.9097C549.313 98.6024 549.511 99.2456 549.808 99.7898L599.579 185.133C601.509 188.448 606.605 187.112 606.605 183.253V7.27272C606.605 5.1948 604.923 3.5127 602.845 3.5127Z" fill="white"/>
<path d="M483.562 74.9043L442.004 5.09602C441.361 4.00759 440.173 3.31494 438.887 3.31494H387.186C385.158 3.31494 383.525 4.94755 383.525 6.97599V233.321C383.525 237.032 388.423 238.367 390.303 235.201L483.612 78.6643C484.255 77.5264 484.255 76.0917 483.562 74.9043Z" fill="white"/>
</svg>
