<?xml version="1.0" encoding="utf-8"?>
<!-- Generator: Adobe Illustrator 27.2.0, SVG Export Plug-In . SVG Version: 6.00 Build 0)  -->
<svg version="1.1" id="Livello_1" xmlns="http://www.w3.org/2000/svg" xmlns:xlink="http://www.w3.org/1999/xlink" x="0px" y="0px"
	 viewBox="0 0 427.15 427.15" style="enable-background:new 0 0 427.15 427.15;" xml:space="preserve">
<style type="text/css">
	.st0{fill:#FA7598;}
	.st1{fill:#7ADBD4;}
	.st2{fill:none;}
</style>
<g>
	<path class="st0" d="M138.13,238.77h18.51l-9.95-16.6l-9.21,15.48C137.19,238.14,137.55,238.77,138.13,238.77z"/>
	<path class="st1" d="M156.31,238.77l12.16,0c0.58,0,0.95-0.64,0.65-1.14l-15.18-25.47c-0.29-0.49-1-0.49-1.29,0l-6.09,10.24
		L156.31,238.77z"/>
	<path class="st2" d="M297.96,198.69h-8.91v16.12h8.91c3.49,0,6.14-0.72,7.86-2.15c1.67-1.38,2.48-3.32,2.48-5.94
		c0-2.61-0.81-4.54-2.47-5.9C304.1,199.41,301.46,198.69,297.96,198.69z"/>
	<path class="st0" d="M351.38,188.38c-13.86,0-25.1,11.24-25.1,25.1c0,13.86,11.24,25.1,25.1,25.1c13.86,0,25.1-11.24,25.1-25.1
		C376.47,199.61,365.24,188.38,351.38,188.38z"/>
	<path class="st1" d="M70,200.22c2.2-1.19,4.74-1.83,7.55-1.93c4.97-0.16,9.75,1.94,13.26,5.46l0.03,0.03
		c0.28,0.28,0.74,0.29,1.03,0.01l6.44-6.28c0.31-0.31,0.31-0.81-0.02-1.1c-1.63-1.47-6.24-5.5-9.05-6.63
		c-3.42-1.37-7.25-2.07-11.4-2.07c-5.11,0-9.78,1.12-13.88,3.33c-4.13,2.22-7.41,5.33-9.75,9.25c-2.34,3.92-3.53,8.39-3.53,13.3
		c0,4.9,1.19,9.38,3.53,13.3c2.34,3.92,5.61,7.03,9.72,9.25c4.08,2.21,8.72,3.33,13.79,3.33c3.57,0,7.1-0.55,10.49-1.63
		c2.67-0.85,7.02-3.53,8.77-4.65c0.48-0.31,0.77-0.84,0.77-1.41v-19.41c0-0.41-0.33-0.73-0.73-0.73h-9.73
		c-0.41,0-0.73,0.33-0.73,0.73l0,14.19c0,0.29-0.16,0.55-0.42,0.67c-2.32,1.1-4.99,1.66-7.94,1.66c-3.05,0-5.8-0.67-8.18-2
		c-2.37-1.31-4.24-3.15-5.58-5.45c-1.34-2.3-2.02-4.94-2.02-7.85c0-2.99,0.68-5.68,2.02-7.98C65.77,203.3,67.64,201.49,70,200.22z"
		/>
	<path class="st1" d="M107.28,238.77h10.15c0.42,0,0.76-0.34,0.76-0.76v-48.88c0-0.42-0.34-0.76-0.76-0.76h-10.15
		c-0.42,0-0.76,0.34-0.76,0.76v48.88C106.52,238.43,106.86,238.77,107.28,238.77z"/>
	<path class="st1" d="M195.64,217.9h21.49c0.41,0,0.74-0.33,0.74-0.74v-8.63c0-0.41-0.33-0.74-0.74-0.74h-21.49
		c-0.41,0-0.74-0.33-0.74-0.74V199c0-0.41,0.33-0.74,0.74-0.74h24.41c0.41,0,0.74-0.33,0.74-0.74v-8.77c0-0.41-0.33-0.74-0.74-0.74
		h-36.08c-0.41,0-0.74,0.33-0.74,0.74v48.92c0,0.41,0.33,0.74,0.74,0.74h37.03c0.41,0,0.74-0.33,0.74-0.74v-8.77
		c0-0.41-0.33-0.74-0.74-0.74h-25.36c-0.41,0-0.74-0.33-0.74-0.74v-8.8C194.9,218.23,195.23,217.9,195.64,217.9z"/>
	<path class="st1" d="M261.07,190.54L261.07,190.54c-3.23-1.43-7.04-2.16-11.34-2.16h-20.25c-0.41,0-0.74,0.33-0.74,0.74v48.92
		c0,0.41,0.33,0.74,0.74,0.74h10.19c0.41,0,0.74-0.33,0.74-0.74v-12.24c0-0.41,0.33-0.74,0.74-0.74h8.57c4.3,0,8.12-0.73,11.34-2.16
		c3.3-1.47,5.88-3.63,7.65-6.41c1.77-2.78,2.67-6.06,2.67-9.76c0-3.75-0.9-7.05-2.67-9.8C266.95,194.15,264.37,192.01,261.07,190.54
		z M257.19,212.61c-1.72,1.41-4.37,2.12-7.86,2.12h-8.17c-0.41,0-0.74-0.33-0.74-0.74v-14.57c0-0.41,0.33-0.74,0.74-0.74h8.17
		c3.5,0,6.14,0.71,7.86,2.13c1.66,1.36,2.47,3.29,2.47,5.9C259.65,209.33,258.84,211.25,257.19,212.61z"/>
	<path class="st1" d="M317.18,216.75c1.9-2.81,2.86-6.19,2.86-10.03c0-3.75-0.9-7.04-2.67-9.8c-1.77-2.76-4.35-4.9-7.65-6.37
		c-3.23-1.43-7.05-2.16-11.34-2.16h-20.25c-0.41,0-0.74,0.33-0.74,0.74v48.92c0,0.41,0.33,0.74,0.74,0.74h10.2
		c0.41,0,0.74-0.33,0.74-0.74v-12.39c0-0.41,0.33-0.74,0.74-0.74h8.58c0.43,0,0.8-0.01,1.13-0.02l9.46,13.56
		c0.14,0.2,0.36,0.31,0.6,0.31h11.18c0.6,0,0.94-0.67,0.6-1.16l-10.22-14.6c-0.25-0.36-0.12-0.86,0.26-1.07
		C313.79,220.63,315.73,218.89,317.18,216.75z M305.82,212.65c-1.72,1.43-4.36,2.15-7.86,2.15h-8.17c-0.41,0-0.74-0.33-0.74-0.74
		v-14.64c0-0.41,0.33-0.74,0.74-0.74h8.17c3.5,0,6.14,0.71,7.86,2.13c1.66,1.36,2.47,3.29,2.47,5.9
		C308.3,209.33,307.49,211.27,305.82,212.65z"/>
	<path class="st1" d="M172.53,188.42h-10.06c-0.42,0-0.76,0.34-0.76,0.76v18.32c0,0.14,0.04,0.27,0.1,0.38l10.06,17.25
		c0.39,0.67,1.42,0.4,1.42-0.38v-35.57C173.29,188.76,172.95,188.42,172.53,188.42z"/>
	<path class="st1" d="M148.42,202.85l-8.4-14.11c-0.13-0.22-0.37-0.36-0.63-0.36h-10.45c-0.41,0-0.74,0.33-0.74,0.74v45.75
		c0,0.75,0.99,1.02,1.37,0.38l18.86-31.64C148.56,203.38,148.56,203.09,148.42,202.85z"/>
</g>
<rect y="0" class="st2" width="427.15" height="427.15"/>
</svg>
